<?xml version="1.0" encoding="UTF-8"?>
<svg id="Ebene_2" data-name="Ebene 2" xmlns="http://www.w3.org/2000/svg" viewBox="0 0 523.3 191.11">
  <defs>
    <style>
      .cls-1 {
        fill: #000b28;
        stroke-width: 0px;
      }
    </style>
  </defs>
  <g id="Ebene_1-2" data-name="Ebene 1">
    <g>
      <path class="cls-1" d="m229.57,55.14c-22.96,14.34-41.43-9.3-63.64,4.58,22.32-13.94,9.07-40.84,32.02-55.18,13.97-8.73,32.38-4.48,41.11,9.5,8.73,13.97,4.48,32.38-9.5,41.11Z"/>
      <g>
        <path class="cls-1" d="m198.97,136.33c3.2,0,5.85-.93,7.96-2.8,2.11-1.86,3.23-4.17,3.37-6.91h12.07c-.14,3.55-1.25,6.86-3.32,9.94-2.07,3.08-4.89,5.51-8.44,7.3s-7.38,2.69-11.49,2.69c-7.98,0-14.3-2.58-18.98-7.75-4.68-5.17-7.01-12.3-7.01-21.41v-1.32c0-8.68,2.32-15.63,6.96-20.85,4.64-5.22,10.97-7.83,18.98-7.83,6.78,0,12.31,1.97,16.58,5.93,4.27,3.95,6.51,9.14,6.72,15.58h-12.07c-.14-3.27-1.26-5.96-3.35-8.07-2.09-2.11-4.75-3.16-7.99-3.16-4.15,0-7.35,1.5-9.59,4.51-2.25,3.01-3.39,7.57-3.43,13.68v2.06c0,6.19,1.12,10.8,3.35,13.84,2.23,3.04,5.46,4.56,9.67,4.56Z"/>
        <path class="cls-1" d="m229.65,116.45c0-5.59,1.1-10.62,3.32-15.1,2.21-4.48,5.33-7.93,9.33-10.33,4.01-2.41,8.61-3.61,13.81-3.61,7.7,0,13.95,2.48,18.74,7.43,4.8,4.96,7.39,11.53,7.78,19.72l.05,3c0,5.62-1.08,10.65-3.24,15.07-2.16,4.43-5.25,7.86-9.28,10.28-4.02,2.42-8.67,3.63-13.94,3.63-8.05,0-14.49-2.68-19.32-8.04-4.83-5.36-7.25-12.5-7.25-21.43v-.63Zm12.81,1.11c0,5.87,1.21,10.46,3.64,13.79,2.42,3.32,5.8,4.98,10.12,4.98s7.69-1.69,10.09-5.07c2.41-3.37,3.61-8.31,3.61-14.81,0-5.77-1.24-10.33-3.72-13.71-2.48-3.37-5.84-5.06-10.1-5.06s-7.5,1.66-9.96,4.98c-2.46,3.32-3.69,8.29-3.69,14.89Z"/>
        <path class="cls-1" d="m305.41,88.46l.37,6.59c4.22-5.09,9.75-7.64,16.61-7.64,11.88,0,17.92,6.8,18.13,20.4v37.69h-12.81v-36.96c0-3.62-.78-6.3-2.35-8.04-1.56-1.74-4.12-2.61-7.67-2.61-5.17,0-9.01,2.34-11.55,7.01v40.59h-12.81v-57.04h12.07Z"/>
        <path class="cls-1" d="m385.54,130c0-2.29-.94-4.03-2.82-5.22-1.88-1.19-5-2.25-9.36-3.16-4.36-.91-8-2.07-10.91-3.48-6.4-3.09-9.6-7.58-9.6-13.45,0-4.92,2.07-9.03,6.22-12.33,4.15-3.31,9.42-4.96,15.82-4.96,6.82,0,12.33,1.69,16.53,5.06,4.2,3.38,6.3,7.75,6.3,13.13h-12.81c0-2.46-.92-4.51-2.74-6.15-1.83-1.63-4.25-2.45-7.27-2.45-2.81,0-5.11.65-6.88,1.95-1.78,1.3-2.66,3.04-2.66,5.22,0,1.97.83,3.5,2.48,4.59,1.65,1.09,4.99,2.19,10.02,3.29,5.03,1.11,8.97,2.42,11.84,3.95,2.86,1.53,4.99,3.37,6.38,5.51,1.39,2.14,2.08,4.75,2.08,7.81,0,5.13-2.13,9.29-6.38,12.47-4.25,3.18-9.82,4.77-16.71,4.77-4.68,0-8.84-.84-12.5-2.53-3.66-1.69-6.5-4.01-8.54-6.96-2.04-2.95-3.06-6.13-3.06-9.54h12.44c.18,3.02,1.32,5.35,3.43,6.98,2.11,1.63,4.9,2.45,8.38,2.45s5.94-.64,7.7-1.92c1.76-1.28,2.63-2.96,2.63-5.03Z"/>
        <path class="cls-1" d="m443.85,139.91c-3.76,4.42-9.1,6.64-16.03,6.64-6.19,0-10.87-1.81-14.05-5.43-3.18-3.62-4.77-8.86-4.77-15.71v-36.96h12.81v36.8c0,7.24,3,10.86,9.01,10.86s10.42-2.23,12.6-6.69v-40.97h12.81v57.04h-12.07l-.32-5.59Z"/>
        <path class="cls-1" d="m482.92,145.5h-12.81v-73.6l12.81-7.38v80.98Z"/>
        <path class="cls-1" d="m512.92,64.52v23.93h10.07v9.49h-10.07v31.84c0,2.18.43,3.76,1.29,4.72s2.4,1.45,4.62,1.45c1.47,0,2.97-.18,4.48-.53v9.91c-2.92.81-5.73,1.21-8.43,1.21-9.85,0-14.76-5.43-14.76-16.29v-32.32h-9.38v-9.49h9.38v-16.55l12.81-7.38Z"/>
      </g>
      <g>
        <path class="cls-1" d="m34.66,54.84C.14,76.4-10.36,121.86,11.2,156.37c21.56,34.52,67.13,45.2,101.54,23.45,55.81-35.27,20.59-99.75,53.19-120.11-32.98,20.6-74.57-40.3-131.27-4.88Zm35.88,52.9c-2.17,0-3.85-.58-5.04-1.74-1.2-1.16-1.79-2.82-1.79-4.98,0-1.79.41-3.45,1.23-4.98s1.94-2.86,3.36-3.98c1.42-1.12,2.99-1.86,4.71-2.24-.22-.08-.45-.15-.67-.22-.22-.08-.49-.12-.78-.12-1.49,0-3.1.45-4.82,1.34-1.72.9-3.47,2.51-5.27,4.82-1.79,2.31-3.68,5.53-5.65,9.63-1.98,4.11-4,9.36-6.05,15.74-.72,2.24-1.45,4.7-2.19,7.27l-4.71,18.21h-15.79l13.67-48.39c.52-2.02.69-3.45.5-4.31-.19-.86-.77-1.29-1.74-1.29-1.34,0-2.58.65-3.69,1.96-1.12,1.3-2.32,3.6-3.59,6.89l-2.13,5.71h-2.13l3.02-8.51c1.12-2.98,2.46-5.3,4.03-6.95,1.57-1.64,3.34-2.82,5.32-3.52,1.98-.71,4.01-1.06,6.1-1.06,2.39,0,4.22.47,5.49,1.4,1.27.94,2.13,2.19,2.58,3.76.45,1.57.61,3.27.5,5.09-.11,1.83-.39,3.64-.84,5.43l-.99,3.84c1.68-4.38,3.37-7.98,5.08-10.72,1.98-3.17,4.07-5.43,6.27-6.78,2.2-1.35,4.72-2.02,7.56-2.02s5.15.86,6.72,2.58c1.57,1.72,2.35,3.88,2.35,6.5,0,2.09-.47,4.01-1.4,5.77-.93,1.75-2.2,3.17-3.81,4.26-1.61,1.08-3.42,1.62-5.43,1.62Zm55.95-3.69c-1.61,2.54-3.75,4.85-6.44,6.95-2.69,2.09-5.69,3.96-9.01,5.6-3.32,1.64-6.72,3.06-10.19,4.26-2.26.78-4.4,1.4-6.49,1.96-.44,2.6-.73,5.17-.73,7.67,0,4.18.8,7.04,2.41,8.57,1.61,1.53,3.68,2.3,6.22,2.3,2.01,0,4.52-.67,7.5-2.02,2.98-1.34,5.94-3.73,8.85-7.17l1.79.9c-1.57,2.46-3.62,4.86-6.16,7.17s-5.49,4.2-8.85,5.66c-3.36,1.45-7.02,2.18-10.98,2.18-3.36,0-6.37-.6-9.02-1.79-2.65-1.2-4.74-2.97-6.27-5.32-1.53-2.36-2.29-5.25-2.29-8.68,0-3.96.65-8.03,1.96-12.21,1.3-4.18,3.15-8.23,5.54-12.15,2.39-3.92,5.26-7.47,8.63-10.65,3.36-3.17,7.09-5.67,11.2-7.5,4.11-1.83,8.47-2.74,13.11-2.74,3.28,0,6.05.73,8.29,2.18,2.24,1.46,3.36,3.68,3.36,6.67s-.8,5.64-2.41,8.18Z"/>
        <path class="cls-1" d="m114.78,89.15c-1.64,0-3.42.84-5.32,2.52-1.9,1.68-3.79,3.92-5.65,6.72-1.87,2.8-3.57,5.99-5.1,9.58-1.53,3.59-2.76,7.32-3.69,11.2-.11.46-.15.9-.25,1.36,1.72-.77,3.5-1.49,5.12-2.36,2.76-1.49,5.11-3.14,7.06-4.93,2.91-2.61,5.25-5.66,7-9.13,1.75-3.48,2.63-7.23,2.63-11.26,0-1.49-.15-2.48-.45-2.97-.3-.49-.75-.73-1.34-.73Z"/>
      </g>
    </g>
  </g>
</svg>